<svg width="64" height="64" viewBox="0 0 64 64" xmlns="http://www.w3.org/2000/svg"><g transform="translate(18, 18) rotate(15)"><path d="M 11.81,-2.15 Q 16.00,5.10 20.00,0.00 Q 16.00,5.10 11.81,2.15 Z" fill="rgba(255,255,255,0.12)" /><path d="M 11.83,2.02 Q 15.86,10.09 23.22,8.45 Q 15.86,10.09 10.36,6.06 Z" fill="rgba(255,255,255,0.12)" /><path d="M 10.42,5.94 Q 10.75,13.96 17.17,14.40 Q 10.75,13.96 7.66,9.23 Z" fill="rgba(255,255,255,0.12)" /><path d="M 7.76,9.15 Q 5.19,19.09 13.12,22.73 Q 5.19,19.09 4.04,11.30 Z" fill="rgba(255,255,255,0.12)" /><path d="M 4.17,11.25 Q -0.89,18.13 4.06,23.04 Q -0.89,18.13 -0.07,12.00 Z" fill="rgba(255,255,255,0.12)" /><path d="M 0.07,12.00 Q -9.00,15.01 -3.59,20.37 Q -9.00,15.01 -4.17,11.25 Z" fill="rgba(255,255,255,0.12)" /><path d="M -4.04,11.30 Q -13.60,13.95 -12.88,22.31 Q -13.60,13.95 -7.76,9.15 Z" fill="rgba(255,255,255,0.12)" /><path d="M -7.66,9.23 Q -15.42,7.73 -16.52,13.87 Q -15.42,7.73 -10.42,5.94 Z" fill="rgba(255,255,255,0.12)" /><path d="M -10.36,6.06 Q -17.07,1.64 -19.93,7.25 Q -17.07,1.64 -11.83,2.02 Z" fill="rgba(255,255,255,0.12)" /><path d="M -11.81,2.15 Q -16.33,-6.23 -20.66,0.00 Q -16.33,-6.23 -11.81,-2.15 Z" fill="rgba(255,255,255,0.12)" /><path d="M -11.83,-2.02 Q -14.46,-12.05 -22.01,-8.01 Q -14.46,-12.05 -10.36,-6.06 Z" fill="rgba(255,255,255,0.12)" /><path d="M -10.42,-5.94 Q -11.93,-14.34 -18.93,-15.89 Q -11.93,-14.34 -7.66,-9.23 Z" fill="rgba(255,255,255,0.12)" /><path d="M -7.76,-9.15 Q -5.81,-17.11 -11.72,-20.31 Q -5.81,-17.11 -4.04,-11.30 Z" fill="rgba(255,255,255,0.12)" /><path d="M -4.17,-11.25 Q 1.53,-19.32 -4.43,-25.13 Q 1.53,-19.32 0.07,-12.00 Z" fill="rgba(255,255,255,0.12)" /><path d="M -0.07,-12.00 Q 7.77,-16.41 4.00,-22.67 Q 7.77,-16.41 4.17,-11.25 Z" fill="rgba(255,255,255,0.12)" /><path d="M 4.04,-11.30 Q 11.01,-12.98 10.75,-18.61 Q 11.01,-12.98 7.76,-9.15 Z" fill="rgba(255,255,255,0.12)" /><path d="M 7.66,-9.23 Q 16.80,-4.99 15.43,-12.95 Q 16.80,-4.99 10.42,-5.94 Z" fill="rgba(255,255,255,0.12)" /><path d="M 10.36,-6.06 Q 19.89,-0.70 24.30,-8.84 Q 19.89,-0.70 11.83,-2.02 Z" fill="rgba(255,255,255,0.12)" /><circle cx="0" cy="0" r="12" fill="#ffffff" /><path d="M 0.70,0.00 L 0.87,0.27 L 0.92,0.63 L 0.83,1.04 L 0.56,1.44 L 0.12,1.75 L -0.45,1.91 L -1.10,1.87 L -1.75,1.61 L -2.34,1.11 L -2.77,0.40 L -2.97,-0.47 L -2.89,-1.42 L -2.49,-2.36 L -1.78,-3.17 L -0.81,-3.76 L 0.36,-4.04 L 1.61,-3.95 L 2.84,-3.46 L 3.91,-2.58 L 4.70,-1.37 L 5.11,0.09 L 5.06,1.66 L 4.51,3.20 L 3.49,4.56 L 2.06,5.58 L 0.33,6.15 L -1.55,6.18 L -3.42,5.62 L -5.08,4.50 " fill="none" stroke="#000000" stroke-width="0.6" stroke-linecap="round" /><path d="M 11.81,-2.15 Q 17.83,-6.08 23.65,0.00 Q 17.83,-6.08 11.81,2.15 Z" fill="rgba(255,255,255,0.5)" /><path d="M 11.83,2.02 Q 18.41,2.04 22.54,8.21 Q 18.41,2.04 10.36,6.06 Z" fill="rgba(255,255,255,0.5)" /><path d="M 10.42,5.94 Q 15.79,7.94 17.16,14.40 Q 15.79,7.94 7.66,9.23 Z" fill="rgba(255,255,255,0.5)" /><path d="M 7.76,9.15 Q 13.38,12.05 11.13,19.27 Q 13.38,12.05 4.04,11.30 Z" fill="rgba(255,255,255,0.5)" /><path d="M 4.17,11.25 Q 6.14,16.35 3.88,21.99 Q 6.14,16.35 -0.07,12.00 Z" fill="rgba(255,255,255,0.5)" /><path d="M 0.07,12.00 Q 0.50,18.05 -4.06,23.03 Q 0.50,18.05 -4.17,11.25 Z" fill="rgba(255,255,255,0.5)" /><path d="M -4.04,11.30 Q -4.99,17.27 -11.45,19.84 Q -4.99,17.27 -7.76,9.15 Z" fill="rgba(255,255,255,0.5)" /><path d="M -7.66,9.23 Q -10.63,13.18 -16.27,13.65 Q -10.63,13.18 -10.42,5.94 Z" fill="rgba(255,255,255,0.5)" /><path d="M -10.36,6.06 Q -16.23,11.42 -24.73,9.00 Q -16.23,11.42 -11.83,2.02 Z" fill="rgba(255,255,255,0.5)" /><path d="M -11.81,2.15 Q -16.29,6.97 -20.57,0.00 Q -16.29,6.97 -11.81,-2.15 Z" fill="rgba(255,255,255,0.5)" /><path d="M -11.83,-2.02 Q -18.33,-0.49 -21.40,-7.79 Q -18.33,-0.49 -10.36,-6.06 Z" fill="rgba(255,255,255,0.5)" /><path d="M -10.42,-5.94 Q -16.04,-6.70 -16.24,-13.62 Q -16.04,-6.70 -7.66,-9.23 Z" fill="rgba(255,255,255,0.5)" /><path d="M -7.76,-9.15 Q -12.85,-14.74 -13.19,-22.84 Q -12.85,-14.74 -4.04,-11.30 Z" fill="rgba(255,255,255,0.5)" /><path d="M -4.17,-11.25 Q -7.69,-17.11 -4.23,-24.01 Q -7.69,-17.11 0.07,-12.00 Z" fill="rgba(255,255,255,0.5)" /><path d="M -0.07,-12.00 Q -2.87,-18.18 3.96,-22.46 Q -2.87,-18.18 4.17,-11.25 Z" fill="rgba(255,255,255,0.5)" /><path d="M 4.04,-11.30 Q 2.88,-17.47 10.57,-18.31 Q 2.88,-17.47 7.76,-9.15 Z" fill="rgba(255,255,255,0.5)" /><path d="M 7.66,-9.23 Q 12.05,-14.54 19.27,-16.17 Q 12.05,-14.54 10.42,-5.94 Z" fill="rgba(255,255,255,0.5)" /><path d="M 10.36,-6.06 Q 13.92,-8.83 18.97,-6.91 Q 13.92,-8.83 11.83,-2.02 Z" fill="rgba(255,255,255,0.5)" /></g><g transform="translate(46, 46) rotate(-10)"><path d="M 11.81,-2.15 Q 16.00,3.08 20.01,0.00 Q 16.00,3.08 11.81,2.15 Z" fill="rgba(255,255,255,0.12)" /><path d="M 11.83,2.02 Q 14.42,12.00 21.91,7.97 Q 14.42,12.00 10.36,6.06 Z" fill="rgba(255,255,255,0.12)" /><path d="M 10.42,5.94 Q 10.19,17.67 20.17,16.92 Q 10.19,17.67 7.66,9.23 Z" fill="rgba(255,255,255,0.12)" /><path d="M 7.76,9.15 Q 6.10,16.60 11.42,19.79 Q 6.10,16.60 4.04,11.30 Z" fill="rgba(255,255,255,0.12)" /><path d="M 4.17,11.25 Q -0.35,16.52 3.54,20.10 Q -0.35,16.52 -0.07,12.00 Z" fill="rgba(255,255,255,0.12)" /><path d="M 0.07,12.00 Q -6.66,16.83 -4.07,23.10 Q -6.66,16.83 -4.17,11.25 Z" fill="rgba(255,255,255,0.12)" /><path d="M -4.04,11.30 Q -14.50,13.22 -12.70,21.99 Q -14.50,13.22 -7.76,9.15 Z" fill="rgba(255,255,255,0.12)" /><path d="M -7.66,9.23 Q -16.44,6.91 -16.91,14.19 Q -16.44,6.91 -10.42,5.94 Z" fill="rgba(255,255,255,0.12)" /><path d="M -10.36,6.06 Q -18.98,3.48 -24.49,8.91 Q -18.98,3.48 -11.83,2.02 Z" fill="rgba(255,255,255,0.12)" /><path d="M -11.81,2.15 Q -17.69,-3.63 -23.38,0.00 Q -17.69,-3.63 -11.81,-2.15 Z" fill="rgba(255,255,255,0.12)" /><path d="M -11.83,-2.02 Q -14.48,-8.84 -19.97,-7.27 Q -14.48,-8.84 -10.36,-6.06 Z" fill="rgba(255,255,255,0.12)" /><path d="M -10.42,-5.94 Q -10.81,-15.44 -18.70,-15.69 Q -10.81,-15.44 -7.66,-9.23 Z" fill="rgba(255,255,255,0.12)" /><path d="M -7.76,-9.15 Q -6.23,-18.30 -12.96,-22.45 Q -6.23,-18.30 -4.04,-11.30 Z" fill="rgba(255,255,255,0.12)" /><path d="M -4.17,-11.25 Q 2.16,-18.57 -4.14,-23.47 Q 2.16,-18.57 0.07,-12.00 Z" fill="rgba(255,255,255,0.12)" /><path d="M -0.07,-12.00 Q 6.53,-18.32 4.58,-25.95 Q 6.53,-18.32 4.17,-11.25 Z" fill="rgba(255,255,255,0.12)" /><path d="M 4.04,-11.30 Q 13.20,-13.49 12.28,-21.28 Q 13.20,-13.49 7.76,-9.15 Z" fill="rgba(255,255,255,0.12)" /><path d="M 7.66,-9.23 Q 17.82,-8.41 20.01,-16.79 Q 17.82,-8.41 10.42,-5.94 Z" fill="rgba(255,255,255,0.12)" /><path d="M 10.36,-6.06 Q 19.92,0.06 23.86,-8.69 Q 19.92,0.06 11.83,-2.02 Z" fill="rgba(255,255,255,0.12)" /><circle cx="0" cy="0" r="12" fill="#ffffff" /><path d="M 0.70,0.00 L 0.87,0.27 L 0.92,0.63 L 0.83,1.04 L 0.56,1.44 L 0.12,1.75 L -0.45,1.91 L -1.10,1.87 L -1.75,1.61 L -2.34,1.11 L -2.77,0.40 L -2.97,-0.47 L -2.89,-1.42 L -2.49,-2.36 L -1.78,-3.17 L -0.81,-3.76 L 0.36,-4.04 L 1.61,-3.95 L 2.84,-3.46 L 3.91,-2.58 L 4.70,-1.37 L 5.11,0.09 L 5.06,1.66 L 4.51,3.20 L 3.49,4.56 L 2.06,5.58 L 0.33,6.15 L -1.55,6.18 L -3.42,5.62 L -5.08,4.50 " fill="none" stroke="#000000" stroke-width="0.6" stroke-linecap="round" /><path d="M 11.81,-2.15 Q 18.15,-5.51 24.30,0.00 Q 18.15,-5.51 11.81,2.15 Z" fill="rgba(255,255,255,0.5)" /><path d="M 11.83,2.02 Q 18.45,3.31 23.44,8.53 Q 18.45,3.31 10.36,6.06 Z" fill="rgba(255,255,255,0.5)" /><path d="M 10.42,5.94 Q 17.82,7.86 19.46,16.33 Q 17.82,7.86 7.66,9.23 Z" fill="rgba(255,255,255,0.5)" /><path d="M 7.76,9.15 Q 11.33,11.95 10.01,17.35 Q 11.33,11.95 4.04,11.30 Z" fill="rgba(255,255,255,0.5)" /><path d="M 4.17,11.25 Q 9.65,15.38 3.76,21.32 Q 9.65,15.38 -0.07,12.00 Z" fill="rgba(255,255,255,0.5)" /><path d="M 0.07,12.00 Q 0.69,18.10 -4.07,23.06 Q 0.69,18.10 -4.17,11.25 Z" fill="rgba(255,255,255,0.5)" /><path d="M -4.04,11.30 Q -3.25,17.93 -11.16,19.32 Q -3.25,17.93 -7.76,9.15 Z" fill="rgba(255,255,255,0.5)" /><path d="M -7.66,9.23 Q -9.20,13.98 -15.37,12.90 Q -9.20,13.98 -10.42,5.94 Z" fill="rgba(255,255,255,0.5)" /><path d="M -10.36,6.06 Q -14.83,11.41 -22.25,8.10 Q -14.83,11.41 -11.83,2.02 Z" fill="rgba(255,255,255,0.5)" /><path d="M -11.81,2.15 Q -16.70,6.25 -21.40,0.00 Q -16.70,6.25 -11.81,-2.15 Z" fill="rgba(255,255,255,0.5)" /><path d="M -11.83,-2.02 Q -19.36,0.31 -22.72,-8.27 Q -19.36,0.31 -10.36,-6.06 Z" fill="rgba(255,255,255,0.5)" /><path d="M -10.42,-5.94 Q -16.33,-8.23 -18.07,-15.17 Q -16.33,-8.23 -7.66,-9.23 Z" fill="rgba(255,255,255,0.5)" /><path d="M -7.76,-9.15 Q -12.51,-14.72 -13.00,-22.52 Q -12.51,-14.72 -4.04,-11.30 Z" fill="rgba(255,255,255,0.5)" /><path d="M -4.17,-11.25 Q -8.93,-17.05 -4.29,-24.31 Q -8.93,-17.05 0.07,-12.00 Z" fill="rgba(255,255,255,0.5)" /><path d="M -0.07,-12.00 Q -2.74,-17.28 3.66,-20.77 Q -2.74,-17.28 4.17,-11.25 Z" fill="rgba(255,255,255,0.5)" /><path d="M 4.04,-11.30 Q 4.65,-17.50 11.48,-19.88 Q 4.65,-17.50 7.76,-9.15 Z" fill="rgba(255,255,255,0.5)" /><path d="M 7.66,-9.23 Q 12.13,-14.64 19.46,-16.33 Q 12.13,-14.64 10.42,-5.94 Z" fill="rgba(255,255,255,0.5)" /><path d="M 10.36,-6.06 Q 14.95,-11.30 22.38,-8.15 Q 14.95,-11.30 11.83,-2.02 Z" fill="rgba(255,255,255,0.5)" /></g></svg>